<svg width="76" height="28" viewBox="0 0 76 28" fill="none" xmlns="http://www.w3.org/2000/svg">
<g clip-path="url(#clip0_6_528)">
<path d="M26.8018 20.2851V11.7946H26.9531L33.1333 20.2851H35.0781V7.81675H32.9172V16.2858H32.7659L26.5857 7.81675H24.6409V20.2851H26.8018ZM41.1935 20.4776C44.0459 20.4776 45.7963 18.6383 45.7963 15.5587C45.7963 12.5004 44.0459 10.6398 41.1935 10.6398C38.3627 10.6398 36.5908 12.5004 36.5908 15.5587C36.6124 18.6383 38.3411 20.4776 41.1935 20.4776ZM41.1935 18.6811C39.6809 18.6811 38.8165 17.5476 38.8165 15.5587C38.8165 13.5911 39.6809 12.4362 41.1935 12.4362C42.7062 12.4362 43.5705 13.5911 43.5705 15.5587C43.5705 17.5476 42.7062 18.6811 41.1935 18.6811ZM47.7627 8.52251V10.8964H46.2501V12.6073H47.7627V17.7615C47.7627 19.6007 48.6271 20.3279 50.8312 20.3279C51.2418 20.3279 51.6524 20.2851 51.9765 20.2209V18.5528C51.7172 18.5742 51.5443 18.5956 51.2418 18.5956C50.3342 18.5956 49.9236 18.1892 49.9236 17.2482V12.6073H51.9765V10.8964H49.9236V8.52251H47.7627ZM53.273 20.2851H55.434V10.8323H53.273V20.2851ZM54.3535 9.27103C55.0666 9.27103 55.65 8.6936 55.65 7.98784C55.65 7.2607 55.0666 6.68327 54.3535 6.68327C53.6404 6.68327 53.0569 7.2607 53.0569 7.98784C53.0569 8.6936 53.6404 9.27103 54.3535 9.27103ZM61.3549 20.4776C64.2073 20.4776 65.9576 18.6383 65.9576 15.5587C65.9576 12.5004 64.2073 10.6398 61.3549 10.6398C58.5241 10.6398 56.7521 12.5004 56.7521 15.5587C56.7521 18.6383 58.4808 20.4776 61.3549 20.4776ZM61.3549 18.6811C59.8422 18.6811 58.9779 17.5476 58.9779 15.5587C58.9779 13.5911 59.8422 12.4362 61.3549 12.4362C62.8459 12.4362 63.7319 13.5911 63.7319 15.5587C63.7103 17.5476 62.8459 18.6811 61.3549 18.6811ZM67.2326 20.2851H69.3935V14.7888C69.3935 13.3986 70.2146 12.5218 71.4896 12.5218C72.8077 12.5218 73.4128 13.2489 73.4128 14.6818V20.2851H75.5737V14.1685C75.5737 11.9016 74.4068 10.6398 72.2891 10.6398C70.8629 10.6398 69.9121 11.2814 69.4583 12.3507H69.307V10.8323H67.211C67.2326 10.8323 67.2326 20.2851 67.2326 20.2851Z" fill="#4C4C4D"/>
<path fill-rule="evenodd" clip-rule="evenodd" d="M3.92139 7.01872C4.55033 7.52611 4.77781 7.48605 5.9554 7.40594L17.0488 6.73833C17.2897 6.73833 17.0889 6.49799 17.0086 6.47128L15.162 5.14942C14.8141 4.88238 14.3323 4.56192 13.4357 4.64204L2.70366 5.42981C2.31559 5.46987 2.2353 5.67015 2.39588 5.81703L3.92139 7.01872ZM4.59047 9.59569V21.2388C4.59047 21.8663 4.89825 22.0933 5.60748 22.0533L17.7982 21.3456C18.5074 21.3056 18.5877 20.8783 18.5877 20.3709V8.80792C18.5877 8.30053 18.387 8.02014 17.9587 8.06019L5.21941 8.80792C4.75105 8.84797 4.59047 9.08831 4.59047 9.59569ZM16.6206 10.2232C16.7009 10.5704 16.6206 10.9309 16.2727 10.971L15.6839 11.0911V19.6899C15.1754 19.957 14.707 20.1172 14.3056 20.1172C13.6766 20.1172 13.516 19.9169 13.0477 19.3294L9.20714 13.3076V19.1291L10.4249 19.3962C10.4249 19.3962 10.4249 20.1039 9.44801 20.1039L6.74492 20.2641C6.66463 20.1039 6.74492 19.7166 7.01255 19.6365L7.72178 19.4362V11.7454L6.74492 11.6653C6.66463 11.3181 6.86535 10.8107 7.414 10.7707L10.3178 10.5704L14.3189 16.659V11.2781L13.3019 11.1579C13.2216 10.7306 13.5428 10.4102 13.9309 10.3701L16.6206 10.2232ZM1.80709 4.36164L12.9808 3.54716C14.3457 3.42699 14.707 3.5071 15.5634 4.13465L19.1229 6.63151C19.7117 7.05878 19.9125 7.17895 19.9125 7.64628V21.359C19.9125 22.2135 19.6047 22.7209 18.5074 22.801L5.54057 23.5888C4.71091 23.6288 4.32284 23.5087 3.89462 22.9612L1.25844 19.5564C0.79008 18.9289 0.589355 18.4615 0.589355 17.9141V5.72356C0.589355 5.0159 0.910515 4.44175 1.80709 4.36164Z" fill="#4C4C4D"/>
</g>
<defs>
<clipPath id="clip0_6_528">
<rect width="75.25" height="28" fill="white" transform="translate(0.589111)"/>
</clipPath>
</defs>
</svg>
