<svg width="83" height="28" viewBox="0 0 83 28" fill="none" xmlns="http://www.w3.org/2000/svg">
<g clip-path="url(#clip0_6_504)">
<path d="M13.2468 1.79593C6.48134 1.79593 0.996582 7.28054 0.996582 14.046C0.996582 20.8118 6.48134 26.2959 13.2468 26.2959C20.013 26.2959 25.4972 20.8118 25.4972 14.046C25.4972 7.28098 20.013 1.79651 13.2467 1.79651L13.2468 1.79593ZM18.8647 19.4641C18.6453 19.8239 18.1742 19.938 17.8144 19.7171C14.9381 17.9603 11.3173 17.5624 7.05316 18.5366C6.64225 18.6302 6.23266 18.3728 6.13904 17.9617C6.04498 17.5507 6.30141 17.1411 6.71335 17.0474C11.3798 15.9813 15.3826 16.4404 18.6116 18.4137C18.9715 18.6346 19.0856 19.1042 18.8647 19.4641ZM20.3641 16.1285C20.0876 16.5779 19.4996 16.7198 19.0505 16.4433C15.7576 14.4193 10.7382 13.8332 6.84339 15.0154C6.33827 15.168 5.80478 14.8833 5.65147 14.3791C5.49934 13.874 5.78415 13.3415 6.28839 13.1879C10.7373 11.838 16.2682 12.4919 20.0496 14.8156C20.4987 15.0921 20.6406 15.6801 20.3641 16.1286V16.1285ZM20.4928 12.6551C16.5446 10.3101 10.0306 10.0944 6.26104 11.2385C5.65572 11.4221 5.01558 11.0804 4.83214 10.4751C4.6487 9.86946 4.99013 9.22976 5.59589 9.04574C9.9231 7.73211 17.1166 7.98592 21.6622 10.6844C22.2079 11.0075 22.3863 11.7107 22.063 12.2545C21.7412 12.7989 21.0361 12.9784 20.4934 12.6551H20.4928ZM34.3254 13.1045C32.2101 12.6001 31.8342 12.2461 31.8342 11.5023C31.8342 10.7995 32.4954 10.3266 33.4799 10.3266C34.4337 10.3266 35.3786 10.6857 36.3704 11.425C36.3997 11.4474 36.4377 11.4563 36.4743 11.4505C36.5123 11.4449 36.5445 11.4246 36.5665 11.394L37.5992 9.93822C37.6417 9.87824 37.63 9.79559 37.5729 9.7498C36.3924 8.80291 35.0641 8.34255 33.5106 8.34255C31.2271 8.34255 29.6312 9.71309 29.6312 11.674C29.6312 13.7768 31.0077 14.5214 33.3863 15.0962C35.4094 15.5624 35.7517 15.953 35.7517 16.651C35.7517 17.4249 35.0612 17.9061 33.9495 17.9061C32.7148 17.9061 31.7069 17.4892 30.5805 16.515C30.5527 16.4901 30.5147 16.4799 30.4796 16.4813C30.4416 16.4843 30.4079 16.5018 30.3845 16.5296L29.226 17.9076C29.1777 17.9661 29.1835 18.051 29.2391 18.1007C30.5498 19.271 32.1619 19.8883 33.9026 19.8883C36.3631 19.8883 37.9532 18.5439 37.9532 16.4623C37.9576 14.7059 36.9058 13.7331 34.3298 13.1064L34.3254 13.1045ZM43.5208 11.0185C42.4544 11.0185 41.5796 11.4386 40.857 12.2995V11.3305C40.857 11.254 40.7955 11.1917 40.7195 11.1917H38.8251C38.749 11.1917 38.6876 11.254 38.6876 11.3305V22.0972C38.6876 22.1732 38.749 22.2361 38.8251 22.2361H40.7195C40.7955 22.2361 40.857 22.1732 40.857 22.0972V18.699C41.5796 19.5079 42.4544 19.9044 43.5208 19.9044C45.5029 19.9044 47.5099 18.3786 47.5099 15.4619C47.5129 12.5445 45.5059 11.0184 43.5223 11.0184L43.5208 11.0185ZM45.3069 15.4619C45.3069 16.9465 44.3926 17.9837 43.0819 17.9837C41.7873 17.9837 40.8102 16.8997 40.8102 15.4619C40.8102 14.0239 41.7873 12.9402 43.0819 12.9402C44.3707 12.9401 45.3069 14.0004 45.3069 15.4617V15.4619ZM52.6518 11.0185C50.0992 11.0185 48.0995 12.984 48.0995 15.4936C48.0995 17.9763 50.086 19.9205 52.6211 19.9205C55.1825 19.9205 57.1881 17.9617 57.1881 15.4619C57.1881 12.9705 55.1957 11.0188 52.6518 11.0188V11.0185ZM52.6518 17.9983C51.2943 17.9983 50.2703 16.907 50.2703 15.4611C50.2703 14.0087 51.2592 12.9547 52.6211 12.9547C53.9874 12.9547 55.0172 14.0456 55.0172 15.4929C55.0172 16.945 54.0225 17.9983 52.6518 17.9983ZM62.6386 11.1917H60.5541V9.06095C60.5541 8.98459 60.4926 8.92228 60.4166 8.92228H58.5222C58.4461 8.92228 58.3832 8.98459 58.3832 9.06095V11.1917H57.4733C57.3973 11.1917 57.3358 11.254 57.3358 11.3305V12.9582C57.3358 13.0346 57.3973 13.0971 57.4733 13.0971H58.3832V17.3093C58.3832 19.0106 59.2302 19.8736 60.9022 19.8736C61.581 19.8736 62.1442 19.7332 62.6752 19.4319C62.7191 19.4085 62.7454 19.3617 62.7454 19.3119V17.7613C62.7454 17.7145 62.7205 17.6692 62.6796 17.6443C62.6386 17.618 62.5874 17.6165 62.545 17.6384C62.1807 17.8213 61.8282 17.9061 61.4332 17.9061C60.8261 17.9061 60.5541 17.6297 60.5541 17.0123V13.0978H62.6386C62.7147 13.0978 62.7761 13.0355 62.7761 12.959V11.3314C62.779 11.2549 62.7176 11.1926 62.6401 11.1926L62.6386 11.1917ZM69.9001 11.2001V10.9384C69.9001 10.1685 70.1956 9.82514 70.8568 9.82514C71.2518 9.82514 71.5692 9.90355 71.9247 10.022C71.9686 10.0358 72.0139 10.0289 72.049 10.0027C72.0856 9.97654 72.1061 9.93456 72.1061 9.89009V8.29414C72.1061 8.23313 72.068 8.17916 72.0081 8.16116C71.6336 8.04955 71.1538 7.93501 70.4341 7.93501C68.686 7.93501 67.76 8.92008 67.76 10.7827V11.1835H66.8501C66.774 11.1835 66.7111 11.2458 66.7111 11.3222V12.9582C66.7111 13.0346 66.774 13.0971 66.8501 13.0971H67.76V19.5928C67.76 19.6703 67.8229 19.7318 67.899 19.7318H69.7919C69.8694 19.7318 69.9308 19.6703 69.9308 19.5928V13.0975H71.6994L74.4086 19.5928C74.1014 20.2745 73.7986 20.4105 73.3861 20.4105C73.0525 20.4105 72.7 20.311 72.3416 20.1136C72.308 20.096 72.267 20.0931 72.2319 20.1033C72.1953 20.1165 72.1646 20.1428 72.15 20.1779L71.5078 21.5866C71.4771 21.6539 71.5034 21.7314 71.5678 21.7666C72.2377 22.1293 72.8419 22.2844 73.5894 22.2844C74.9879 22.2844 75.7617 21.632 76.4419 19.8795L79.7275 11.3896C79.745 11.3469 79.7392 11.2987 79.7128 11.2608C79.688 11.2232 79.6455 11.2005 79.6002 11.2005H77.6283C77.5683 11.2005 77.5156 11.2381 77.4966 11.2935L75.4765 17.0621L73.2646 11.2897C73.2442 11.236 73.193 11.2005 73.1359 11.2005H69.9001V11.2001ZM65.6901 11.1917H63.7957C63.7196 11.1917 63.6567 11.254 63.6567 11.3305V19.5928C63.6567 19.6703 63.7196 19.7318 63.7957 19.7318H65.6901C65.7661 19.7318 65.829 19.6703 65.829 19.5928V11.3311C65.829 11.2546 65.7676 11.1923 65.6901 11.1923V11.1917ZM64.7539 7.42945C64.0034 7.42945 63.3949 8.03682 63.3949 8.78711C63.3949 9.53784 64.0034 10.1459 64.7539 10.1459C65.5043 10.1459 66.1114 9.53784 66.1114 8.78711C66.1114 8.03697 65.5028 7.42945 64.7539 7.42945ZM81.3454 13.8484C80.5964 13.8484 80.0127 13.2464 80.0127 12.5154C80.0127 11.7845 80.6037 11.1756 81.3527 11.1756C82.1016 11.1756 82.6853 11.7774 82.6853 12.5078C82.6853 13.2388 82.0943 13.8484 81.3454 13.8484ZM81.3527 11.3082C80.6695 11.3082 80.1531 11.8509 80.1531 12.5154C80.1531 13.1797 80.6666 13.7151 81.3454 13.7151C82.0285 13.7151 82.5449 13.1728 82.5449 12.5078C82.5449 11.8436 82.0314 11.3082 81.3527 11.3082ZM81.6482 12.6449L82.0256 13.1727H81.7067L81.3673 12.6885H81.0762V13.1727H80.81V11.7736H81.4331C81.7593 11.7736 81.9729 11.94 81.9729 12.2199C81.9744 12.4493 81.8412 12.5895 81.6496 12.6449H81.6482ZM81.4229 12.0137H81.0762V12.4562H81.4229C81.5955 12.4562 81.6994 12.3715 81.6994 12.2347C81.6994 12.0908 81.5955 12.0137 81.4229 12.0137Z" fill="#4C4C4D"/>
</g>
<defs>
<clipPath id="clip0_6_504">
<rect width="81.6667" height="28" fill="white" transform="translate(0.952393)"/>
</clipPath>
</defs>
</svg>
