<svg width="58" height="28" viewBox="0 0 58 28" fill="none" xmlns="http://www.w3.org/2000/svg">
<g clip-path="url(#clip0_6_508)">
<path fill-rule="evenodd" clip-rule="evenodd" d="M46.5555 12.0165C46.7738 12.3931 46.8452 12.8216 46.8688 13.3033L46.8997 13.9454V18.4352L46.9314 19.0779C46.9947 20.1276 47.7689 20.9038 48.8266 20.9698L49.466 21.0015V13.9454L49.4977 13.3033C49.5239 12.827 49.5947 12.3904 49.8163 12.0111C50.0422 11.6221 50.3665 11.2993 50.7565 11.0752C51.1466 10.851 51.5888 10.7335 52.0386 10.7343C52.4885 10.7351 52.9302 10.8543 53.3195 11.0798C53.7088 11.3054 54.0318 11.6293 54.2563 12.0192C54.4746 12.3958 54.5426 12.8324 54.5689 13.3033L54.6006 13.9434V18.4352L54.6322 19.0779C54.6982 20.133 55.4663 20.9092 56.5274 20.9698L57.1668 21.0015V13.3033C57.1668 11.9421 56.6262 10.6366 55.6638 9.67386C54.7015 8.71113 53.3962 8.17001 52.035 8.16947C51.3064 8.1687 50.586 8.32342 49.9221 8.6233C49.2581 8.92317 48.6657 9.36129 48.1846 9.90838C47.7032 9.3615 47.1108 8.92349 46.4469 8.62353C45.7829 8.32357 45.0627 8.16855 44.3342 8.1688C43.2683 8.1688 42.2793 8.49219 41.46 9.05072C40.9601 8.49286 39.8417 8.1688 39.1996 8.1688V21.0015L39.8417 20.9698C40.9156 20.8991 41.6918 20.1438 41.7335 19.0779L41.7679 18.4352V13.9454L41.7996 13.3033C41.8265 12.8189 41.8939 12.3931 42.1128 12.0138C42.3389 11.625 42.663 11.3023 43.0528 11.0779C43.4426 10.8535 43.8844 10.7353 44.3342 10.7351C44.7843 10.7352 45.2264 10.8536 45.6163 11.0785C46.0062 11.3034 46.3301 11.6269 46.5555 12.0165ZM2.62583 20.9705L3.2679 21.0015H12.8922L12.8606 20.3614C12.7736 19.3063 12.0265 18.5356 10.968 18.4669L10.326 18.4352H4.55204L12.2502 10.7344L12.2185 10.095C12.1686 9.02916 11.3898 8.25908 10.326 8.20046L9.68389 8.17149L0.0595703 8.1688L0.0912359 8.81087C0.175453 9.85583 0.933406 10.6428 1.98309 10.7034L2.62583 10.7351H8.39975L0.701641 18.4359L0.733307 19.0779C0.796638 20.1357 1.55998 20.9017 2.62583 20.9698V20.9705ZM36.6805 10.0472C37.2764 10.643 37.7492 11.3503 38.0717 12.1288C38.3942 12.9074 38.5602 13.7418 38.5602 14.5845C38.5602 15.4271 38.3942 16.2616 38.0717 17.0401C37.7492 17.8186 37.2764 18.5259 36.6805 19.1217C35.4765 20.3247 33.8442 21.0005 32.1422 21.0005C30.4402 21.0005 28.8079 20.3247 27.6039 19.1217C25.0983 16.6161 25.0983 12.5528 27.6039 10.0472C28.1993 9.45158 28.9062 8.97908 29.6842 8.65667C30.4622 8.33426 31.296 8.16825 32.1382 8.16812C32.9817 8.16754 33.8171 8.33325 34.5965 8.6558C35.3759 8.97834 36.0841 9.45137 36.6805 10.0478V10.0472ZM34.8648 11.8642C35.5865 12.5865 35.9919 13.5658 35.9919 14.5868C35.9919 15.6079 35.5865 16.5871 34.8648 17.3094C34.1425 18.0311 33.1633 18.4365 32.1422 18.4365C31.1212 18.4365 30.1419 18.0311 29.4197 17.3094C28.6979 16.5871 28.2925 15.6079 28.2925 14.5868C28.2925 13.5658 28.6979 12.5865 29.4197 11.8642C30.1419 11.1425 31.1212 10.7371 32.1422 10.7371C33.1633 10.7371 34.1425 11.1425 34.8648 11.8642ZM18.6715 8.16812C19.5137 8.16834 20.3476 8.33446 21.1256 8.65698C21.9036 8.97951 22.6105 9.45213 23.2058 10.0478C25.7121 12.5528 25.7121 16.6168 23.2058 19.1217C22.0018 20.3247 20.3695 21.0005 18.6675 21.0005C16.9655 21.0005 15.3332 20.3247 14.1292 19.1217C11.6236 16.6161 11.6236 12.5528 14.1292 10.0472C14.7246 9.45158 15.4315 8.97908 16.2094 8.65667C16.9874 8.33426 17.8213 8.16825 18.6635 8.16812H18.6715ZM21.3901 11.8629C22.112 12.5852 22.5175 13.5646 22.5175 14.5858C22.5175 15.607 22.112 16.5864 21.3901 17.3087C20.6678 18.0304 19.6885 18.4358 18.6675 18.4358C17.6465 18.4358 16.6672 18.0304 15.9449 17.3087C15.2232 16.5864 14.8178 15.6072 14.8178 14.5861C14.8178 13.5651 15.2232 12.5858 15.9449 11.8636C16.6672 11.1419 17.6465 10.7364 18.6675 10.7364C19.6885 10.7364 20.6678 11.1419 21.3901 11.8636V11.8629Z" fill="#4C4C4D"/>
</g>
<defs>
<clipPath id="clip0_6_508">
<rect width="57.1666" height="28" fill="white" transform="translate(0.0595703)"/>
</clipPath>
</defs>
</svg>
