<svg width="79" height="28" viewBox="0 0 79 28" fill="none" xmlns="http://www.w3.org/2000/svg">
<g clip-path="url(#clip0_6_517)">
<path d="M9.10299 3.5H0.565918V23.9167L9.10299 3.5Z" fill="#4C4C4D"/>
<path d="M15.1096 3.5H23.6356V23.9167L15.1096 3.5Z" fill="#4C4C4D"/>
<path d="M12.1061 11.025L17.5398 23.9168H13.9748L12.3508 19.8123H8.37427L12.1061 11.025Z" fill="#4C4C4D"/>
<path d="M37.5634 16.4827L38.5701 19.3691C38.6034 19.4414 38.6535 19.4748 38.7425 19.4748H40.6779C40.7836 19.4748 40.8003 19.4247 40.7836 19.3191L36.7848 8.21254C36.7681 8.12356 36.7514 8.10687 36.6624 8.10687H34.2598C34.1931 8.10687 34.1541 8.15693 34.1541 8.22923C34.1208 8.8132 34.0707 8.99117 33.9984 9.16358L30.4334 19.3024C30.4167 19.4248 30.4557 19.4748 30.5558 19.4748H32.2854C32.3911 19.4748 32.4412 19.4414 32.4801 19.3358L33.4311 16.4827H37.5634ZM33.9817 14.5973C34.5045 13.0178 35.1942 10.9933 35.4722 9.83653H35.4889C35.8338 11.049 36.6457 13.4516 37.0128 14.5973H33.9817Z" fill="#4C4C4D"/>
<path d="M45.9244 19.6467C46.9644 19.6467 48.0711 19.4576 49.1946 18.9737C49.2836 18.9403 49.3003 18.9014 49.3003 18.818C49.2669 18.5065 49.228 18.0561 49.228 17.7112V7.25541C49.228 7.18867 49.228 7.1553 49.1445 7.1553H47.2592C47.1869 7.1553 47.1535 7.18867 47.1535 7.27766V10.8204C46.8587 10.787 46.6529 10.7703 46.4082 10.7703C43.366 10.7703 41.4973 12.7781 41.4973 15.2864C41.4973 18.1951 43.4161 19.6467 45.9244 19.6467ZM47.1535 17.7112C46.842 17.8113 46.4972 17.8503 46.1468 17.8503C44.7675 17.8503 43.6385 17.0717 43.6385 15.1807C43.6385 13.5067 44.8009 12.5167 46.3415 12.5167C46.6529 12.5167 46.9254 12.5501 47.1535 12.6391V17.7112Z" fill="#4C4C4D"/>
<path d="M55.314 10.7712C52.7167 10.7712 51.1094 12.7623 51.1094 15.2205C51.1094 17.4174 52.3885 19.6476 55.275 19.6476C57.7166 19.6476 59.4295 17.8512 59.4295 15.1649C59.4295 12.7957 57.978 10.7712 55.314 10.7712ZM55.2083 12.5176C56.6765 12.5176 57.2994 13.7801 57.2994 15.2205C57.2994 17.0002 56.3818 17.8845 55.314 17.8845C53.9958 17.8845 53.2172 16.7778 53.2172 15.1816C53.2172 13.5409 54.0459 12.5176 55.2083 12.5176Z" fill="#4C4C4D"/>
<path d="M61.3794 7.1553C61.3071 7.1553 61.2571 7.18867 61.2571 7.27766V19.1128C61.2571 19.1628 61.3071 19.2518 61.3794 19.2685C62.2081 19.5243 63.0757 19.6467 63.9711 19.6467C66.535 19.6467 69.0266 18.0561 69.0266 14.8526C69.0266 12.5334 67.436 10.7703 64.9444 10.7703C64.3716 10.7703 63.8377 10.8593 63.3705 11.0151L63.3482 7.29434C63.3482 7.17199 63.3149 7.1553 63.1925 7.1553H61.3794ZM66.8965 15.0639C66.8965 16.9827 65.584 17.8836 64.1658 17.8836C63.871 17.8836 63.6096 17.867 63.3705 17.7947V12.7447C63.643 12.6391 63.9711 12.5501 64.5774 12.5501C65.9455 12.5501 66.8965 13.4177 66.8965 15.0639Z" fill="#4C4C4D"/>
<path d="M76.063 15.6877C76.9083 15.6877 77.6035 15.671 77.8427 15.6154C77.9317 15.5987 77.965 15.5653 77.9817 15.493C78.0318 15.304 78.054 14.9091 78.054 14.4252C78.054 12.779 77.0641 10.7712 74.5057 10.7712C71.8918 10.7712 70.4402 12.9013 70.4402 15.304C70.4402 17.434 71.5636 19.6476 74.7115 19.6476C75.8906 19.6476 76.6525 19.4585 77.3088 19.147C77.3755 19.1137 77.4089 19.058 77.4089 18.9579V17.5175C77.4089 17.434 77.3588 17.4174 77.3088 17.4507C76.6525 17.7288 75.9406 17.8679 75.162 17.8679C73.399 17.8679 72.5981 16.8946 72.548 15.6877H76.063ZM72.548 14.1972C72.6871 13.3518 73.221 12.4342 74.4167 12.4342C75.7348 12.4342 76.0796 13.5409 76.0796 14.0415C76.0796 14.0582 76.0796 14.1305 76.0796 14.1805C76.0073 14.1972 75.7849 14.1972 75.1286 14.1972H72.548Z" fill="#4C4C4D"/>
</g>
<defs>
<clipPath id="clip0_6_517">
<rect width="77.5833" height="28" fill="white" transform="translate(0.565674)"/>
</clipPath>
</defs>
</svg>
